<svg width="24" height="24" viewBox="0 0 24 24" fill="none" xmlns="http://www.w3.org/2000/svg">
<path opacity="0.5" d="M1.5 4.42969V8.95312C1.5 9.84375 1.60547 10.6992 1.81641 11.5195C2.02734 12.3398 2.32031 13.1289 2.69531 13.8867C3.07031 14.6445 3.51953 15.3672 4.04297 16.0547C4.56641 16.7422 5.12891 17.3906 5.73047 18C6.33203 18.6094 6.97656 19.1836 7.66406 19.7227C8.35156 20.2617 9.03906 20.7617 9.72656 21.2227C9.5625 21.6211 9.48047 22.0312 9.48047 22.4531C9.48047 22.6016 9.49219 22.75 9.51562 22.8984C8.70312 22.3906 7.90234 21.8359 7.11328 21.2344C6.32422 20.6328 5.57812 19.9883 4.875 19.3008C4.17188 18.6133 3.52344 17.875 2.92969 17.0859C2.33594 16.2969 1.82031 15.4766 1.38281 14.625C0.945312 13.7734 0.605469 12.8672 0.363281 11.9062C0.121094 10.9453 0 9.96094 0 8.95312V2.95312C0.648438 2.95312 1.27734 2.92969 1.88672 2.88281C2.49609 2.83594 3.09375 2.75 3.67969 2.625C4.26562 2.5 4.83984 2.32422 5.40234 2.09766C5.96484 1.87109 6.52344 1.57422 7.07812 1.20703C7.72656 0.785156 8.38672 0.480469 9.05859 0.292969C9.73047 0.105469 10.457 0.0078125 11.2383 0C12.0195 0 12.75 0.0976563 13.4297 0.292969C14.1094 0.488281 14.7773 0.796875 15.4336 1.21875C15.9883 1.57812 16.5469 1.87109 17.1094 2.09766C17.6719 2.32422 18.2422 2.5 18.8203 2.625C19.3984 2.75 19.9961 2.83594 20.6133 2.88281C21.2305 2.92969 21.8594 2.95312 22.5 2.95312V8.95312H21V4.42969C20.1953 4.39062 19.4688 4.29297 18.8203 4.13672C18.1719 3.98047 17.5703 3.78906 17.0156 3.5625C16.4609 3.33594 15.9453 3.10547 15.4688 2.87109C14.9922 2.63672 14.5273 2.41016 14.0742 2.19141C13.6211 1.97266 13.1641 1.80469 12.7031 1.6875C12.2422 1.57031 11.7578 1.5 11.25 1.47656C10.7344 1.47656 10.25 1.54297 9.79688 1.67578C9.34375 1.80859 8.88672 1.98047 8.42578 2.19141C7.96484 2.40234 7.49609 2.625 7.01953 2.85938C6.54297 3.09375 6.03125 3.32812 5.48438 3.5625C4.9375 3.79688 4.33594 3.98438 3.67969 4.125C3.02344 4.26562 2.29688 4.36719 1.5 4.42969ZM23.168 22.4531C23.168 22.6562 23.1289 22.8477 23.0508 23.0273C22.9727 23.207 22.8633 23.3633 22.7227 23.4961C22.582 23.6289 22.4219 23.7383 22.2422 23.8242C22.0625 23.9102 21.8711 23.9531 21.668 23.9531H12.832C12.6289 23.9531 12.4375 23.9141 12.2578 23.8359C12.0781 23.7578 11.9219 23.6484 11.7891 23.5078C11.6562 23.3672 11.5469 23.207 11.4609 23.0273C11.375 22.8477 11.332 22.6562 11.332 22.4531C11.332 22.2734 11.4062 21.9883 11.5547 21.5977C11.7031 21.207 11.8984 20.7578 12.1406 20.25C12.3828 19.7422 12.6445 19.2148 12.9258 18.668C13.207 18.1211 13.4883 17.5938 13.7695 17.0859C14.0508 16.5781 14.2969 16.1211 14.5078 15.7148C14.7188 15.3086 14.8828 14.9961 15 14.7773V11.9531H13.5V10.4531H21V11.9531H19.5V14.7773C19.6016 14.9883 19.7617 15.2969 19.9805 15.7031C20.1992 16.1094 20.4492 16.5664 20.7305 17.0742C21.0117 17.582 21.293 18.1133 21.5742 18.668C21.8555 19.2227 22.1172 19.75 22.3594 20.25C22.6016 20.75 22.793 21.1953 22.9336 21.5859C23.0742 21.9766 23.1523 22.2656 23.168 22.4531ZM18 11.9531H16.5V15.1289L14.332 19.4531H20.168L18 15.1289V11.9531Z" fill="white"/>
</svg>
